<svg version="1.1" id="Capa_1" xmlns="http://www.w3.org/2000/svg" xmlns:xlink="http://www.w3.org/1999/xlink" x="0px" y="0px"
	viewBox="0 0 553.9 553.9" fill="#888" style="enable-background:new 0 0 553.9 553.9;" xml:space="preserve">
<path class="st0" d="M139.2,162.1h-107c-12.6,0-22.9-10.2-22.9-22.9v-107c0-12.6,10.2-22.9,22.9-22.9h107
	c12.6,0,22.9,10.2,22.9,22.9v107C162.1,151.8,151.8,162.1,139.2,162.1z"/>
<path class="st0" d="M330.5,351.3h-107c-12.6,0-22.9-10.2-22.9-22.9v-107c0-12.6,10.2-22.9,22.9-22.9h107
	c12.6,0,22.9,10.2,22.9,22.9v107C353.4,341.1,343.1,351.3,330.5,351.3z"/>
<path class="st0" d="M330.5,162.1h-107c-12.6,0-22.9-10.2-22.9-22.9v-107c0-12.6,10.2-22.9,22.9-22.9h107
	c12.6,0,22.9,10.2,22.9,22.9v107C353.4,151.8,343.1,162.1,330.5,162.1z"/>
<path class="st0" d="M521.8,162.1h-107c-12.6,0-22.9-10.2-22.9-22.9v-107c0-12.6,10.2-22.9,22.9-22.9h107
	c12.6,0,22.9,10.2,22.9,22.9v107C544.6,151.8,534.4,162.1,521.8,162.1z"/>
<path class="st0" d="M521.8,351.3h-107c-12.6,0-22.9-10.2-22.9-22.9v-107c0-12.6,10.2-22.9,22.9-22.9h107
	c12.6,0,22.9,10.2,22.9,22.9v107C544.6,341.1,534.4,351.3,521.8,351.3z"/>
<path class="st0" d="M139.2,544.6h-107c-12.6,0-22.9-10.2-22.9-22.9v-107c0-12.6,10.2-22.9,22.9-22.9h107
	c12.6,0,22.9,10.2,22.9,22.9v107C162.1,534.4,151.8,544.6,139.2,544.6z"/>
<path class="st0" d="M139.2,351.3h-107c-12.6,0-22.9-10.2-22.9-22.9v-107c0-12.6,10.2-22.9,22.9-22.9h107
	c12.6,0,22.9,10.2,22.9,22.9v107C162.1,341.1,151.8,351.3,139.2,351.3z"/>
<path class="st0" d="M330.5,544.6h-107c-12.6,0-22.9-10.2-22.9-22.9v-107c0-12.6,10.2-22.9,22.9-22.9h107
	c12.6,0,22.9,10.2,22.9,22.9v107C353.4,534.4,343.1,544.6,330.5,544.6z"/>
<path class="st0" d="M521.8,544.6h-107c-12.6,0-22.9-10.2-22.9-22.9v-107c0-12.6,10.2-22.9,22.9-22.9h107
	c12.6,0,22.9,10.2,22.9,22.9v107C544.6,534.4,534.4,544.6,521.8,544.6z"/>
</svg>
