
<svg version="1.1" id="Capa_1" xmlns="http://www.w3.org/2000/svg" xmlns:xlink="http://www.w3.org/1999/xlink" x="0px" y="0px"
	viewBox="0 0 430.6 492.3" fill="#888" style="enable-background:new 0 0 430.6 492.3;" xml:space="preserve">
<g>
	<path d="M135.5,384c-14.4,8.3-28,15.8-41.1,23.9c-7.6,4.7-14.1,4.5-21.8-0.1C53,396,33,384.6,13,373.3c-6.4-3.6-9.1-8.5-9-15.8
		c0.1-74.3,0.1-148.6,0-223c0-7.3,2.6-12.2,9-15.9C77.2,81.8,141.3,44.7,205.4,7.6c7.1-4.1,13-4,20,0.1c19.9,11.8,40,23.3,60.1,34.7
		c6.7,3.8,9.7,8.9,9.6,16.6c-0.2,16-0.1,31.9-0.1,48.6c1.9-0.9,3.2-1.5,4.4-2.2c12.8-7.4,25.7-14.7,38.5-22.3
		c6.1-3.6,11.6-3.8,17.8-0.1c20.7,12.1,41.4,24.1,62.3,36c6,3.4,8.6,8.2,8.6,15.1c-0.1,74.8-0.1,149.6,0,224.5
		c0,6.5-2.6,11.1-8.1,14.3c-65,37.5-130.1,75-195.1,112.6c-5.6,3.3-10.9,3.1-16.5-0.1c-21.1-12.3-42.4-24.5-63.6-36.7
		c-5.7-3.3-7.9-8.2-7.9-14.5c0.1-14.5,0-29,0-43.5C135.5,388.7,135.5,386.9,135.5,384z M184.3,73c-13.9,24.1-27.5,47.8-41.2,71.8
		c16,9.2,31.5,18.2,47,27.2c6.3,3.6,11.2,2.3,15-4.2c11.2-19.4,22.4-38.9,33.6-58.3c0.6-1.1,1.2-2.3,2-3.9
		C222,94.7,203.5,84,184.3,73z M91.2,235c-13.7,23.9-27.1,47.2-40.7,70.9c18.9,10.9,37.4,21.6,56.1,32.4c5-8.6,9.8-16.8,14.5-25
		c7.2-12.5,14.5-25,21.7-37.6c2.4-4.2,2.2-9.6-0.6-11.2C125.4,254.7,108.5,245,91.2,235z M210.1,388.8c0-20.6-0.1-39.8,0.1-59.1
		c0-3.5-1.2-5.3-4.2-6.9c-15.5-8.8-30.8-17.7-46.2-26.6c-1.4-0.8-2.8-1.4-4.4-2.2c-0.3,1-0.5,1.4-0.5,1.9c0,19.5-0.1,38.9,0.1,58.4
		c0,1.6,1.8,3.8,3.4,4.7c14.6,8.6,29.3,17,44,25.5C204.6,385.7,206.8,386.9,210.1,388.8z M155.1,217.4c-0.2,1.6-0.4,2.3-0.4,2.9
		c0,19.1-0.1,38.3,0.1,57.4c0,1.7,1.6,4,3.1,4.9c16,9.5,32.2,18.7,48.3,28c0.9,0.5,2,0.9,3.2,1.4c0.2-0.8,0.5-1.3,0.5-1.7
		c0-19.5,0.1-39-0.1-58.4c0-1.6-1.8-3.8-3.3-4.7c-8.4-5.1-16.9-9.9-25.4-14.8C172.7,227.5,164.2,222.7,155.1,217.4z M155.3,369.6
		c-0.2,1.4-0.5,2.1-0.5,2.9c0,19.1-0.1,38.3,0.1,57.4c0,1.7,1.9,4.1,3.6,5.1c15.7,9.3,31.6,18.4,47.5,27.5c1.1,0.6,2.3,1,3.4,1.5
		c0.3-0.6,0.6-0.9,0.6-1.2c0-19.6,0.2-39.3,0-58.9c0-1.6-1.8-3.8-3.4-4.7c-9.4-5.7-19-11-28.5-16.5
		C170.6,378.4,163.2,374.1,155.3,369.6z M220.5,312.8c18.5-10.7,36-20.7,53.2-30.9c1.2-0.7,1.9-3.3,1.9-5c0.1-18,0.1-36,0.1-53.9
		c0-1.6-0.2-3.2-0.3-5c-0.9,0.2-1.5,0.2-1.9,0.5c-16.9,9.7-33.7,19.4-50.5,29.3c-1.4,0.8-2.5,3.4-2.6,5.1
		c-0.2,11.1-0.1,22.3-0.1,33.5C220.6,294.8,220.5,303.2,220.5,312.8z M220.5,388.4c1.5-0.6,2.2-0.8,2.7-1.1
		c16.6-9.5,33.2-19,49.6-28.8c1.5-0.9,2.8-3.3,2.8-5c0.2-18.6,0.1-37.3,0.1-55.9c0-1.1-0.2-2.2-0.4-3.3c-0.6,0-1-0.1-1.3,0
		c-17.1,9.9-34.3,19.7-51.3,29.7c-1.3,0.8-2.2,3.2-2.2,4.9c-0.2,9.8-0.1,19.6-0.1,29.4C220.5,368.1,220.5,377.8,220.5,388.4z
		 M144.2,253.3c0-14.5,0.2-28-0.1-41.4c-0.1-5.2,1.6-8.2,6.2-10.7c11.5-6.3,22.7-13,34.8-19.9c-16.1-9.3-31.6-18.2-47.3-27.3
		c-13.8,24.1-27.4,47.7-41.2,71.8C112.3,234.9,127.8,243.8,144.2,253.3z M220.5,464.2c1.3-0.4,1.9-0.5,2.5-0.8
		c16.7-9.6,33.5-19.2,50-29c1.5-0.9,2.7-3.7,2.7-5.6c0.2-18.1,0.1-36.3,0.1-54.4c0-1.4-0.2-2.8-0.4-4.8
		c-18,10.4-35.4,20.4-52.8,30.6c-1,0.6-2,2.3-2,3.5C220.5,423.6,220.5,443.5,220.5,464.2z M160.1,208c18.4,10.6,35.8,20.7,53.3,30.6
		c1.3,0.7,3.8,0.1,5.3-0.8c16-9.1,32-18.4,47.9-27.6c1.1-0.6,2-1.4,3.4-2.5c-17.9-10.4-35.3-20.5-52.8-30.4
		c-1.2-0.7-3.5-0.2-4.9,0.6c-6.3,3.4-12.4,7-18.6,10.6C182.9,194.8,172,201.1,160.1,208z M226.4,169.7c0.9,0.8,1.3,1.2,1.7,1.4
		c16.8,9.7,33.6,19.6,50.6,29.1c1.4,0.8,4.2,0.5,5.7-0.4c15.9-9,31.7-18.2,47.6-27.4c1.2-0.7,2.3-1.6,4-2.7
		c-18.1-10.5-35.6-20.6-53.2-30.7c-0.9-0.5-2.6-0.4-3.6,0.2C261.7,149.3,244.3,159.4,226.4,169.7z M28.5,132
		c18.3,10.6,35.7,20.7,53.2,30.6c1.3,0.7,3.8,0.1,5.3-0.8c15.9-9,31.7-18.2,47.5-27.4c1.2-0.7,2.3-1.6,3.9-2.7
		c-15.1-8.8-30-16.6-44.1-25.8c-7.9-5.1-13.8-5-21.6,0.1C58.7,115.2,43.8,123.1,28.5,132z M291.6,132.1c1.2,0.6,1.7,0.7,2.1,1
		c16.9,9.7,33.7,19.5,50.6,29.1c1.5,0.9,4.5,0.5,6.1-0.5c14.5-8.1,28.9-16.5,43.3-24.9c2.5-1.5,5-3,8.2-4.9
		c-18.2-10.5-35.7-20.7-53.3-30.7c-1-0.6-2.9-0.3-4,0.3C327.4,111.4,310.1,121.4,291.6,132.1z M407.4,293.5c-2.4,1.3-4,2.1-5.6,3
		c-12.7,7.3-25,15.3-38.2,21.7c-9,4.4-13,9.8-11.5,19.8c0.8,5.7,0.2,11.6,0.2,17.5c0,10.8,0,21.6,0,32.3c0.7,0,1.1,0.2,1.3,0.1
		c17.3-9.9,34.6-19.9,51.9-30c1-0.6,1.8-2.4,1.8-3.6C407.4,334.4,407.4,314.4,407.4,293.5z M341.6,331.3
		c-18.5,10.7-35.9,20.7-53.2,30.9c-1.2,0.7-1.9,3.3-1.9,5c-0.1,14.7-0.1,29.3-0.1,44c0,4.9,0,9.8,0,15.5c2.1-1.1,3.6-1.8,5-2.6
		c12-6.9,23.5-14.8,36-20.4c11.8-5.3,15.6-12.6,14.5-25.3C340.6,363.1,341.6,347.7,341.6,331.3z M78.3,236.7c0-21.1,0.1-41.1-0.2-61
		c0-1.6-1.9-3.7-3.5-4.6c-15.6-9.2-31.3-18.2-47-27.2c-1.2-0.7-2.5-1.3-3.9-1.9c-0.3,0.7-0.5,1-0.5,1.3c0,19.6-0.1,39.3,0.1,58.9
		c0,1.6,1.8,3.8,3.3,4.7c11.8,7.1,23.8,13.9,35.8,20.8C67.4,230.5,72.4,233.3,78.3,236.7z M352.3,236.8
		c18.4-10.6,35.8-20.6,53.1-30.9c1.2-0.7,1.9-3.3,1.9-5c0.1-17.1,0.1-34.3,0.1-51.4c0-2.4,0-4.8,0-8c-2.4,1.2-4,2-5.5,2.9
		c-14.4,8.3-28.7,16.8-43.2,24.8c-4.8,2.6-6.6,5.6-6.5,11.2C352.5,198.8,352.3,217.2,352.3,236.8z M286.4,274.4
		c1.4-0.6,2.1-0.8,2.6-1.1c16.6-9.5,33.2-19,49.6-28.7c1.5-0.9,2.8-3.6,2.8-5.5c0.2-16.6,0.1-33.3,0.1-49.9c0-2.9,0-5.9,0-8.6
		c-0.7-0.2-0.9-0.4-1-0.3c-17.5,10-34.9,19.9-52.3,30c-0.9,0.5-1.7,2.1-1.7,3.2C286.4,233.4,286.4,253.5,286.4,274.4z M352.3,312.2
		c1.3-0.4,1.8-0.5,2.2-0.7c16.7-9.6,33.5-19.2,50.1-29c1.5-0.9,2.7-3.6,2.8-5.5c0.2-15.8,0.1-31.6,0.1-47.4c0-3.8,0-7.5,0-11.3
		c-0.9,0-1.3-0.1-1.5,0c-17.2,9.9-34.3,19.7-51.4,29.7c-1,0.6-2.1,2.3-2.1,3.4C352.3,271.4,352.3,291.6,352.3,312.2z M341.6,255.7
		c-1.4,0.6-2.2,0.8-2.9,1.2c-16.6,9.5-33.2,19-49.6,28.8c-1.5,0.9-2.6,3.7-2.6,5.6c-0.2,18.3-0.1,36.6-0.1,54.9c0,1.2,0.2,2.5,0.4,4
		c1-0.4,1.7-0.6,2.2-0.9c16.6-9.5,33.2-19,49.6-28.7c1.5-0.9,2.8-3.6,2.8-5.5c0.2-17.3,0.1-34.6,0.1-51.9
		C341.6,260.8,341.6,258.6,341.6,255.7z M175.9,65c5.2-5.7,6-5.8,12.8-1.9c10.5,6.1,20.9,12.3,31.6,18.1c1.5,0.8,4.2,1,5.7,0.2
		c14.1-7.9,28-16,41.9-24.1c0.6-0.4,1.2-1,2.1-1.8c-17.9-10.4-35.5-20.5-53.1-30.5c-1.1-0.6-3.5,0.1-4.8,0.9
		c-16.2,9.2-32.3,18.6-48.4,27.9c-0.9,0.5-1.8,1.2-3.2,2.2C166,59.3,171,62.2,175.9,65z M78.3,388.8c0-18.2,0.1-35.4-0.1-52.7
		c0-1.2-1.6-2.7-2.8-3.4c-10.3-6.1-20.7-12-31.1-18c-7-4-7.1-4.4-4.9-12.1c-5.1-2.9-10.3-5.9-16.2-9.2c0,21.1-0.1,41.1,0.2,61
		c0,1.6,1.9,3.7,3.5,4.6c13.9,8.2,27.9,16.2,41.9,24.2C71.6,384.9,74.6,386.7,78.3,388.8z M45.2,293.7c9.3-16.2,18.3-31.9,27.5-47.9
		C56.1,236.2,40,227,23.2,217.3c0,21.3,0,41.5,0.1,61.7c0,1.1,1.3,2.6,2.3,3.3C31.9,286.1,38.2,289.7,45.2,293.7z M171.1,74.6
		c-6.1-3.6-11.9-6.7-17.5-10.3c-2.9-1.8-5.1-1.9-8.1-0.1c-15.3,9.1-30.8,17.9-46.2,26.8c-1.4,0.8-2.7,1.7-4.7,3
		c16.7,9.6,32.7,18.9,49.1,28.3C152.9,106.4,161.9,90.7,171.1,74.6z"/>
</g>
</svg>
